<svg width="25" height="25" viewBox="0 0 25 25" fill="none" xmlns="http://www.w3.org/2000/svg">
<mask id="mask0_50_1584" style="mask-type:alpha" maskUnits="userSpaceOnUse" x="0" y="0" width="25" height="25">
<rect x="0.959229" y="0.503342" width="24" height="24" fill="#D9D9D9"/>
</mask>
<g mask="url(#mask0_50_1584)">
<path d="M6.80923 17.6033C7.65923 16.9533 8.60923 16.4407 9.65923 16.0653C10.7092 15.6907 11.8092 15.5033 12.9592 15.5033C14.1092 15.5033 15.2092 15.6907 16.2592 16.0653C17.3092 16.4407 18.2592 16.9533 19.1092 17.6033C19.6926 16.92 20.1469 16.145 20.4722 15.2783C20.7969 14.4117 20.9592 13.4867 20.9592 12.5033C20.9592 10.2867 20.1802 8.39901 18.6222 6.84034C17.0636 5.28234 15.1759 4.50334 12.9592 4.50334C10.7426 4.50334 8.85523 5.28234 7.29723 6.84034C5.73856 8.39901 4.95923 10.2867 4.95923 12.5033C4.95923 13.4867 5.1219 14.4117 5.44723 15.2783C5.7719 16.145 6.2259 16.92 6.80923 17.6033ZM12.9592 13.5033C11.9759 13.5033 11.1466 13.166 10.4712 12.4913C9.79656 11.816 9.45923 10.9867 9.45923 10.0033C9.45923 9.02001 9.79656 8.19068 10.4712 7.51534C11.1466 6.84068 11.9759 6.50334 12.9592 6.50334C13.9426 6.50334 14.7719 6.84068 15.4472 7.51534C16.1219 8.19068 16.4592 9.02001 16.4592 10.0033C16.4592 10.9867 16.1219 11.816 15.4472 12.4913C14.7719 13.166 13.9426 13.5033 12.9592 13.5033ZM12.9592 22.5033C11.5759 22.5033 10.2759 22.2407 9.05923 21.7153C7.84256 21.1907 6.78423 20.4783 5.88423 19.5783C4.98423 18.6783 4.2719 17.62 3.74723 16.4033C3.2219 15.1867 2.95923 13.8867 2.95923 12.5033C2.95923 11.12 3.2219 9.82001 3.74723 8.60334C4.2719 7.38668 4.98423 6.32834 5.88423 5.42834C6.78423 4.52834 7.84256 3.81568 9.05923 3.29034C10.2759 2.76567 11.5759 2.50334 12.9592 2.50334C14.3426 2.50334 15.6426 2.76567 16.8592 3.29034C18.0759 3.81568 19.1342 4.52834 20.0342 5.42834C20.9342 6.32834 21.6466 7.38668 22.1712 8.60334C22.6966 9.82001 22.9592 11.12 22.9592 12.5033C22.9592 13.8867 22.6966 15.1867 22.1712 16.4033C21.6466 17.62 20.9342 18.6783 20.0342 19.5783C19.1342 20.4783 18.0759 21.1907 16.8592 21.7153C15.6426 22.2407 14.3426 22.5033 12.9592 22.5033ZM12.9592 20.5033C13.8426 20.5033 14.6759 20.3743 15.4592 20.1163C16.2426 19.8577 16.9592 19.4867 17.6092 19.0033C16.9592 18.52 16.2426 18.149 15.4592 17.8903C14.6759 17.6323 13.8426 17.5033 12.9592 17.5033C12.0759 17.5033 11.2426 17.6323 10.4592 17.8903C9.6759 18.149 8.95923 18.52 8.30923 19.0033C8.95923 19.4867 9.6759 19.8577 10.4592 20.1163C11.2426 20.3743 12.0759 20.5033 12.9592 20.5033ZM12.9592 11.5033C13.3926 11.5033 13.7509 11.3617 14.0342 11.0783C14.3176 10.795 14.4592 10.4367 14.4592 10.0033C14.4592 9.57001 14.3176 9.21168 14.0342 8.92834C13.7509 8.64501 13.3926 8.50334 12.9592 8.50334C12.5259 8.50334 12.1676 8.64501 11.8842 8.92834C11.6009 9.21168 11.4592 9.57001 11.4592 10.0033C11.4592 10.4367 11.6009 10.795 11.8842 11.0783C12.1676 11.3617 12.5259 11.5033 12.9592 11.5033Z" fill="#1C1B1F"/>
</g>
</svg>
